<mxfile host="app.diagrams.net" modified="2020-10-15T08:58:41.307Z" agent="5.0 (Macintosh; Intel Mac OS X 10_15_6) AppleWebKit/537.36 (KHTML, like Gecko) Chrome/86.0.4240.75 Safari/537.36" etag="EE9tZDChOT4f4pNHiNbG" version="13.8.0" type="github">
  <diagram id="kgpKYQtTHZ0yAKxKKP6v" name="Page-1">
    <mxGraphModel dx="946" dy="614" grid="1" gridSize="10" guides="1" tooltips="1" connect="1" arrows="1" fold="1" page="1" pageScale="1" pageWidth="850" pageHeight="1100" math="0" shadow="0">
      <root>
        <mxCell id="0" />
        <mxCell id="1" parent="0" />
        <mxCell id="3nuBFxr9cyL0pnOWT2aG-1" value="Mooncake" style="shape=umlLifeline;perimeter=lifelinePerimeter;container=1;collapsible=0;recursiveResize=0;rounded=0;shadow=0;strokeWidth=1;" parent="1" vertex="1">
          <mxGeometry x="120" y="80" width="100" height="480" as="geometry" />
        </mxCell>
        <mxCell id="3nuBFxr9cyL0pnOWT2aG-2" value="" style="points=[];perimeter=orthogonalPerimeter;rounded=0;shadow=0;strokeWidth=1;" parent="3nuBFxr9cyL0pnOWT2aG-1" vertex="1">
          <mxGeometry x="45" y="80" width="10" height="130" as="geometry" />
        </mxCell>
        <mxCell id="G5kwNWp2M6isGWkbNR8L-33" value="" style="rounded=0;whiteSpace=wrap;html=1;" parent="3nuBFxr9cyL0pnOWT2aG-1" vertex="1">
          <mxGeometry x="45" y="230" width="10" height="230" as="geometry" />
        </mxCell>
        <mxCell id="3nuBFxr9cyL0pnOWT2aG-5" value="djuno" style="shape=umlLifeline;perimeter=lifelinePerimeter;container=1;collapsible=0;recursiveResize=0;rounded=0;shadow=0;strokeWidth=1;" parent="1" vertex="1">
          <mxGeometry x="300" y="80" width="100" height="480" as="geometry" />
        </mxCell>
        <mxCell id="3nuBFxr9cyL0pnOWT2aG-6" value="" style="points=[];perimeter=orthogonalPerimeter;rounded=0;shadow=0;strokeWidth=1;" parent="3nuBFxr9cyL0pnOWT2aG-5" vertex="1">
          <mxGeometry x="45" y="80" width="10" height="120" as="geometry" />
        </mxCell>
        <mxCell id="G5kwNWp2M6isGWkbNR8L-38" value="" style="rounded=0;whiteSpace=wrap;html=1;" parent="3nuBFxr9cyL0pnOWT2aG-5" vertex="1">
          <mxGeometry x="45" y="360" width="10" height="50" as="geometry" />
        </mxCell>
        <mxCell id="G5kwNWp2M6isGWkbNR8L-4" value="Parcel" style="shape=umlLifeline;perimeter=lifelinePerimeter;container=1;collapsible=0;recursiveResize=0;rounded=0;shadow=0;strokeWidth=1;" parent="1" vertex="1">
          <mxGeometry x="570" y="80" width="100" height="370" as="geometry" />
        </mxCell>
        <mxCell id="G5kwNWp2M6isGWkbNR8L-5" value="" style="points=[];perimeter=orthogonalPerimeter;rounded=0;shadow=0;strokeWidth=1;" parent="G5kwNWp2M6isGWkbNR8L-4" vertex="1">
          <mxGeometry x="45" y="120" width="10" height="30" as="geometry" />
        </mxCell>
        <mxCell id="G5kwNWp2M6isGWkbNR8L-34" value="" style="rounded=0;whiteSpace=wrap;html=1;" parent="G5kwNWp2M6isGWkbNR8L-4" vertex="1">
          <mxGeometry x="45" y="260" width="10" height="60" as="geometry" />
        </mxCell>
        <mxCell id="G5kwNWp2M6isGWkbNR8L-46" value="" style="endArrow=classic;html=1;exitX=1;exitY=0.25;exitDx=0;exitDy=0;entryX=1;entryY=0.75;entryDx=0;entryDy=0;" parent="G5kwNWp2M6isGWkbNR8L-4" source="G5kwNWp2M6isGWkbNR8L-34" target="G5kwNWp2M6isGWkbNR8L-34" edge="1">
          <mxGeometry width="50" height="50" relative="1" as="geometry">
            <mxPoint x="60" y="270" as="sourcePoint" />
            <mxPoint x="130" y="275" as="targetPoint" />
            <Array as="points">
              <mxPoint x="120" y="290" />
            </Array>
          </mxGeometry>
        </mxCell>
        <mxCell id="G5kwNWp2M6isGWkbNR8L-48" value="Job" style="edgeLabel;html=1;align=center;verticalAlign=middle;resizable=0;points=[];" parent="G5kwNWp2M6isGWkbNR8L-46" vertex="1" connectable="0">
          <mxGeometry x="-0.5256" y="-1" relative="1" as="geometry">
            <mxPoint x="4.31" y="-13.11" as="offset" />
          </mxGeometry>
        </mxCell>
        <mxCell id="YN2jXhvPyiVH8HveL5Z5-2" value="" style="endArrow=classic;html=1;entryX=1.3;entryY=0.867;entryDx=0;entryDy=0;entryPerimeter=0;" edge="1" parent="G5kwNWp2M6isGWkbNR8L-4" target="G5kwNWp2M6isGWkbNR8L-5">
          <mxGeometry width="50" height="50" relative="1" as="geometry">
            <mxPoint x="55" y="130" as="sourcePoint" />
            <mxPoint x="140" y="110" as="targetPoint" />
            <Array as="points">
              <mxPoint x="110" y="130" />
            </Array>
          </mxGeometry>
        </mxCell>
        <mxCell id="YN2jXhvPyiVH8HveL5Z5-3" value="Process" style="edgeLabel;html=1;align=center;verticalAlign=middle;resizable=0;points=[];" vertex="1" connectable="0" parent="YN2jXhvPyiVH8HveL5Z5-2">
          <mxGeometry x="-0.4516" y="-9" relative="1" as="geometry">
            <mxPoint x="5" y="-19" as="offset" />
          </mxGeometry>
        </mxCell>
        <mxCell id="G5kwNWp2M6isGWkbNR8L-7" value="" style="endArrow=classic;html=1;entryX=0.024;entryY=0.009;entryDx=0;entryDy=0;entryPerimeter=0;" parent="1" target="G5kwNWp2M6isGWkbNR8L-3" edge="1">
          <mxGeometry width="50" height="50" relative="1" as="geometry">
            <mxPoint x="177" y="171" as="sourcePoint" />
            <mxPoint x="480" y="170" as="targetPoint" />
          </mxGeometry>
        </mxCell>
        <mxCell id="G5kwNWp2M6isGWkbNR8L-8" value="Transaction" style="edgeLabel;html=1;align=center;verticalAlign=middle;resizable=0;points=[];" parent="G5kwNWp2M6isGWkbNR8L-7" vertex="1" connectable="0">
          <mxGeometry x="-0.4751" relative="1" as="geometry">
            <mxPoint y="-7.74" as="offset" />
          </mxGeometry>
        </mxCell>
        <mxCell id="G5kwNWp2M6isGWkbNR8L-9" value="" style="endArrow=classic;html=1;exitX=0.99;exitY=0.026;exitDx=0;exitDy=0;exitPerimeter=0;" parent="1" edge="1">
          <mxGeometry width="50" height="50" relative="1" as="geometry">
            <mxPoint x="494.9999999999999" y="201.34000000000003" as="sourcePoint" />
            <mxPoint x="619.6" y="200" as="targetPoint" />
            <Array as="points">
              <mxPoint x="550.1" y="200" />
              <mxPoint x="570.1" y="200" />
            </Array>
          </mxGeometry>
        </mxCell>
        <mxCell id="G5kwNWp2M6isGWkbNR8L-13" value="metadata&lt;br&gt;encryption" style="edgeLabel;html=1;align=center;verticalAlign=middle;resizable=0;points=[];" parent="G5kwNWp2M6isGWkbNR8L-9" vertex="1" connectable="0">
          <mxGeometry x="0.0261" y="1" relative="1" as="geometry">
            <mxPoint x="-3.86" y="-19" as="offset" />
          </mxGeometry>
        </mxCell>
        <mxCell id="G5kwNWp2M6isGWkbNR8L-16" value="" style="endArrow=classicThin;html=1;startArrow=oval;startFill=1;endFill=1;" parent="1" source="G5kwNWp2M6isGWkbNR8L-23" target="3nuBFxr9cyL0pnOWT2aG-1" edge="1">
          <mxGeometry width="50" height="50" relative="1" as="geometry">
            <mxPoint x="80" y="310" as="sourcePoint" />
            <mxPoint x="130" y="260" as="targetPoint" />
            <Array as="points">
              <mxPoint x="140" y="310" />
            </Array>
          </mxGeometry>
        </mxCell>
        <mxCell id="G5kwNWp2M6isGWkbNR8L-21" value="Scroll" style="edgeLabel;html=1;align=center;verticalAlign=middle;resizable=0;points=[];" parent="G5kwNWp2M6isGWkbNR8L-16" vertex="1" connectable="0">
          <mxGeometry x="0.2113" y="-1" relative="1" as="geometry">
            <mxPoint x="-14.48" y="-11" as="offset" />
          </mxGeometry>
        </mxCell>
        <mxCell id="G5kwNWp2M6isGWkbNR8L-17" value="User&lt;br&gt;" style="shape=umlActor;verticalLabelPosition=bottom;verticalAlign=top;html=1;outlineConnect=0;" parent="1" vertex="1">
          <mxGeometry x="45" y="10" width="30" height="60" as="geometry" />
        </mxCell>
        <mxCell id="G5kwNWp2M6isGWkbNR8L-23" value="User" style="shape=umlLifeline;perimeter=lifelinePerimeter;container=1;collapsible=0;recursiveResize=0;rounded=0;shadow=0;strokeWidth=1;" parent="1" vertex="1">
          <mxGeometry x="10" y="80" width="100" height="480" as="geometry" />
        </mxCell>
        <mxCell id="G5kwNWp2M6isGWkbNR8L-24" value="" style="points=[];perimeter=orthogonalPerimeter;rounded=0;shadow=0;strokeWidth=1;" parent="G5kwNWp2M6isGWkbNR8L-23" vertex="1">
          <mxGeometry x="45" y="80" width="10" height="390" as="geometry" />
        </mxCell>
        <mxCell id="3nuBFxr9cyL0pnOWT2aG-3" value="Reaction" style="verticalAlign=bottom;startArrow=oval;endArrow=block;startSize=8;shadow=0;strokeWidth=1;entryX=-0.114;entryY=0.022;entryDx=0;entryDy=0;entryPerimeter=0;exitX=0.472;exitY=-0.002;exitDx=0;exitDy=0;exitPerimeter=0;" parent="1" source="G5kwNWp2M6isGWkbNR8L-24" target="3nuBFxr9cyL0pnOWT2aG-2" edge="1">
          <mxGeometry x="-0.1667" relative="1" as="geometry">
            <mxPoint x="105" y="150" as="sourcePoint" />
            <mxPoint as="offset" />
          </mxGeometry>
        </mxCell>
        <mxCell id="G5kwNWp2M6isGWkbNR8L-2" value="Desmos" style="shape=umlLifeline;perimeter=lifelinePerimeter;container=1;collapsible=0;recursiveResize=0;rounded=0;shadow=0;strokeWidth=1;" parent="1" vertex="1">
          <mxGeometry x="440" y="80" width="100" height="400" as="geometry" />
        </mxCell>
        <mxCell id="G5kwNWp2M6isGWkbNR8L-3" value="" style="points=[];perimeter=orthogonalPerimeter;rounded=0;shadow=0;strokeWidth=1;" parent="G5kwNWp2M6isGWkbNR8L-2" vertex="1">
          <mxGeometry x="45" y="90" width="10" height="90" as="geometry" />
        </mxCell>
        <mxCell id="G5kwNWp2M6isGWkbNR8L-40" value="" style="rounded=0;whiteSpace=wrap;html=1;" parent="G5kwNWp2M6isGWkbNR8L-2" vertex="1">
          <mxGeometry x="45" y="240" width="10" height="70" as="geometry" />
        </mxCell>
        <mxCell id="G5kwNWp2M6isGWkbNR8L-25" value="" style="edgeStyle=orthogonalEdgeStyle;rounded=0;orthogonalLoop=1;jettySize=auto;html=1;startArrow=oval;startFill=1;endArrow=classicThin;endFill=1;dashed=1;" parent="1" source="G5kwNWp2M6isGWkbNR8L-5" target="G5kwNWp2M6isGWkbNR8L-2" edge="1">
          <mxGeometry relative="1" as="geometry">
            <Array as="points">
              <mxPoint x="600" y="230" />
              <mxPoint x="600" y="230" />
            </Array>
          </mxGeometry>
        </mxCell>
        <mxCell id="G5kwNWp2M6isGWkbNR8L-27" value="" style="endArrow=classic;html=1;exitX=0.99;exitY=0.422;exitDx=0;exitDy=0;exitPerimeter=0;" parent="1" source="3nuBFxr9cyL0pnOWT2aG-2" target="3nuBFxr9cyL0pnOWT2aG-5" edge="1">
          <mxGeometry width="50" height="50" relative="1" as="geometry">
            <mxPoint x="180" y="230" as="sourcePoint" />
            <mxPoint x="230" y="180" as="targetPoint" />
          </mxGeometry>
        </mxCell>
        <mxCell id="G5kwNWp2M6isGWkbNR8L-28" value="Parse" style="edgeLabel;html=1;align=center;verticalAlign=middle;resizable=0;points=[];" parent="G5kwNWp2M6isGWkbNR8L-27" vertex="1" connectable="0">
          <mxGeometry x="0.1454" relative="1" as="geometry">
            <mxPoint x="-14.9" y="-10.18" as="offset" />
          </mxGeometry>
        </mxCell>
        <mxCell id="G5kwNWp2M6isGWkbNR8L-29" value="" style="endArrow=classic;html=1;" parent="1" target="3nuBFxr9cyL0pnOWT2aG-2" edge="1">
          <mxGeometry width="50" height="50" relative="1" as="geometry">
            <mxPoint x="346" y="278" as="sourcePoint" />
            <mxPoint x="370" y="230" as="targetPoint" />
          </mxGeometry>
        </mxCell>
        <mxCell id="G5kwNWp2M6isGWkbNR8L-30" value="Update Posts" style="edgeLabel;html=1;align=center;verticalAlign=middle;resizable=0;points=[];" parent="G5kwNWp2M6isGWkbNR8L-29" vertex="1" connectable="0">
          <mxGeometry x="-0.1361" relative="1" as="geometry">
            <mxPoint y="-8" as="offset" />
          </mxGeometry>
        </mxCell>
        <mxCell id="G5kwNWp2M6isGWkbNR8L-31" value="" style="endArrow=classic;html=1;exitX=0.99;exitY=0.048;exitDx=0;exitDy=0;exitPerimeter=0;entryX=0;entryY=0;entryDx=0;entryDy=0;" parent="1" source="G5kwNWp2M6isGWkbNR8L-33" target="G5kwNWp2M6isGWkbNR8L-40" edge="1">
          <mxGeometry width="50" height="50" relative="1" as="geometry">
            <mxPoint x="180" y="330" as="sourcePoint" />
            <mxPoint x="610" y="330" as="targetPoint" />
          </mxGeometry>
        </mxCell>
        <mxCell id="G5kwNWp2M6isGWkbNR8L-32" value="Access Account" style="edgeLabel;html=1;align=center;verticalAlign=middle;resizable=0;points=[];" parent="G5kwNWp2M6isGWkbNR8L-31" vertex="1" connectable="0">
          <mxGeometry x="0.2245" y="-1" relative="1" as="geometry">
            <mxPoint x="-29.66" y="-10.94" as="offset" />
          </mxGeometry>
        </mxCell>
        <mxCell id="G5kwNWp2M6isGWkbNR8L-35" value="" style="endArrow=classic;html=1;exitX=0;exitY=1;exitDx=0;exitDy=0;" parent="1" source="G5kwNWp2M6isGWkbNR8L-34" target="3nuBFxr9cyL0pnOWT2aG-1" edge="1">
          <mxGeometry width="50" height="50" relative="1" as="geometry">
            <mxPoint x="550" y="360" as="sourcePoint" />
            <mxPoint x="400" y="380" as="targetPoint" />
          </mxGeometry>
        </mxCell>
        <mxCell id="G5kwNWp2M6isGWkbNR8L-49" value="Posts Recommended" style="edgeLabel;html=1;align=center;verticalAlign=middle;resizable=0;points=[];" parent="G5kwNWp2M6isGWkbNR8L-35" vertex="1" connectable="0">
          <mxGeometry x="0.274" y="-1" relative="1" as="geometry">
            <mxPoint x="-24.48" y="-9" as="offset" />
          </mxGeometry>
        </mxCell>
        <mxCell id="G5kwNWp2M6isGWkbNR8L-42" value="" style="endArrow=classic;html=1;exitX=1;exitY=0.25;exitDx=0;exitDy=0;entryX=0;entryY=0;entryDx=0;entryDy=0;" parent="1" source="G5kwNWp2M6isGWkbNR8L-40" target="G5kwNWp2M6isGWkbNR8L-34" edge="1">
          <mxGeometry width="50" height="50" relative="1" as="geometry">
            <mxPoint x="500" y="330" as="sourcePoint" />
            <mxPoint x="550" y="280" as="targetPoint" />
          </mxGeometry>
        </mxCell>
        <mxCell id="G5kwNWp2M6isGWkbNR8L-45" value="Access Metadata" style="edgeLabel;html=1;align=center;verticalAlign=middle;resizable=0;points=[];" parent="G5kwNWp2M6isGWkbNR8L-42" vertex="1" connectable="0">
          <mxGeometry x="-0.0485" y="2" relative="1" as="geometry">
            <mxPoint y="-6.69" as="offset" />
          </mxGeometry>
        </mxCell>
        <mxCell id="G5kwNWp2M6isGWkbNR8L-50" value="" style="endArrow=classic;html=1;entryX=0;entryY=0;entryDx=0;entryDy=0;" parent="1" source="3nuBFxr9cyL0pnOWT2aG-1" target="G5kwNWp2M6isGWkbNR8L-38" edge="1">
          <mxGeometry width="50" height="50" relative="1" as="geometry">
            <mxPoint x="190" y="440" as="sourcePoint" />
            <mxPoint x="230" y="390" as="targetPoint" />
          </mxGeometry>
        </mxCell>
        <mxCell id="G5kwNWp2M6isGWkbNR8L-51" value="Request Posts" style="edgeLabel;html=1;align=center;verticalAlign=middle;resizable=0;points=[];" parent="G5kwNWp2M6isGWkbNR8L-50" vertex="1" connectable="0">
          <mxGeometry x="0.0875" y="-2" relative="1" as="geometry">
            <mxPoint x="-4.98" y="-12" as="offset" />
          </mxGeometry>
        </mxCell>
        <mxCell id="G5kwNWp2M6isGWkbNR8L-57" value="" style="endArrow=classic;html=1;dashed=1;" parent="1" source="3nuBFxr9cyL0pnOWT2aG-5" target="3nuBFxr9cyL0pnOWT2aG-1" edge="1">
          <mxGeometry width="50" height="50" relative="1" as="geometry">
            <mxPoint x="320" y="420" as="sourcePoint" />
            <mxPoint x="370" y="370" as="targetPoint" />
            <Array as="points">
              <mxPoint x="290" y="490" />
            </Array>
          </mxGeometry>
        </mxCell>
      </root>
    </mxGraphModel>
  </diagram>
</mxfile>
